<svg width="24" height="25" viewBox="0 0 24 25" fill="none" xmlns="http://www.w3.org/2000/svg">
<g id="Frame">
<path id="Vector" d="M19.5 3.5H17.25V2.75C17.25 2.55109 17.171 2.36032 17.0303 2.21967C16.8897 2.07902 16.6989 2 16.5 2C16.3011 2 16.1103 2.07902 15.9697 2.21967C15.829 2.36032 15.75 2.55109 15.75 2.75V3.5H8.25V2.75C8.25 2.55109 8.17098 2.36032 8.03033 2.21967C7.88968 2.07902 7.69891 2 7.5 2C7.30109 2 7.11032 2.07902 6.96967 2.21967C6.82902 2.36032 6.75 2.55109 6.75 2.75V3.5H4.5C4.10218 3.5 3.72064 3.65804 3.43934 3.93934C3.15804 4.22064 3 4.60218 3 5V20C3 20.3978 3.15804 20.7794 3.43934 21.0607C3.72064 21.342 4.10218 21.5 4.5 21.5H19.5C19.8978 21.5 20.2794 21.342 20.5607 21.0607C20.842 20.7794 21 20.3978 21 20V5C21 4.60218 20.842 4.22064 20.5607 3.93934C20.2794 3.65804 19.8978 3.5 19.5 3.5ZM7.875 17.75C7.6525 17.75 7.43499 17.684 7.24998 17.5604C7.06498 17.4368 6.92078 17.2611 6.83564 17.0555C6.75049 16.85 6.72821 16.6238 6.77162 16.4055C6.81502 16.1873 6.92217 15.9868 7.0795 15.8295C7.23684 15.6722 7.43729 15.565 7.65552 15.5216C7.87375 15.4782 8.09995 15.5005 8.30552 15.5856C8.51109 15.6708 8.68679 15.815 8.8104 16C8.93402 16.185 9 16.4025 9 16.625C9 16.9234 8.88147 17.2095 8.6705 17.4205C8.45952 17.6315 8.17337 17.75 7.875 17.75ZM12 17.75C11.7775 17.75 11.56 17.684 11.375 17.5604C11.19 17.4368 11.0458 17.2611 10.9606 17.0555C10.8755 16.85 10.8532 16.6238 10.8966 16.4055C10.94 16.1873 11.0472 15.9868 11.2045 15.8295C11.3618 15.6722 11.5623 15.565 11.7805 15.5216C11.9988 15.4782 12.225 15.5005 12.4305 15.5856C12.6361 15.6708 12.8118 15.815 12.9354 16C13.059 16.185 13.125 16.4025 13.125 16.625C13.125 16.9234 13.0065 17.2095 12.7955 17.4205C12.5845 17.6315 12.2984 17.75 12 17.75ZM12 14C11.7775 14 11.56 13.934 11.375 13.8104C11.19 13.6868 11.0458 13.5111 10.9606 13.3055C10.8755 13.1 10.8532 12.8738 10.8966 12.6555C10.94 12.4373 11.0472 12.2368 11.2045 12.0795C11.3618 11.9222 11.5623 11.815 11.7805 11.7716C11.9988 11.7282 12.225 11.7505 12.4305 11.8356C12.6361 11.9208 12.8118 12.065 12.9354 12.25C13.059 12.435 13.125 12.6525 13.125 12.875C13.125 13.1734 13.0065 13.4595 12.7955 13.6705C12.5845 13.8815 12.2984 14 12 14ZM16.125 17.75C15.9025 17.75 15.685 17.684 15.5 17.5604C15.315 17.4368 15.1708 17.2611 15.0856 17.0555C15.0005 16.85 14.9782 16.6238 15.0216 16.4055C15.065 16.1873 15.1722 15.9868 15.3295 15.8295C15.4868 15.6722 15.6873 15.565 15.9055 15.5216C16.1238 15.4782 16.35 15.5005 16.5555 15.5856C16.7611 15.6708 16.9368 15.815 17.0604 16C17.184 16.185 17.25 16.4025 17.25 16.625C17.25 16.9234 17.1315 17.2095 16.9205 17.4205C16.7095 17.6315 16.4234 17.75 16.125 17.75ZM16.125 14C15.9025 14 15.685 13.934 15.5 13.8104C15.315 13.6868 15.1708 13.5111 15.0856 13.3055C15.0005 13.1 14.9782 12.8738 15.0216 12.6555C15.065 12.4373 15.1722 12.2368 15.3295 12.0795C15.4868 11.9222 15.6873 11.815 15.9055 11.7716C16.1238 11.7282 16.35 11.7505 16.5555 11.8356C16.7611 11.9208 16.9368 12.065 17.0604 12.25C17.184 12.435 17.25 12.6525 17.25 12.875C17.25 13.1734 17.1315 13.4595 16.9205 13.6705C16.7095 13.8815 16.4234 14 16.125 14ZM19.5 8H4.5V5H6.75V5.75C6.75 5.94891 6.82902 6.13968 6.96967 6.28033C7.11032 6.42098 7.30109 6.5 7.5 6.5C7.69891 6.5 7.88968 6.42098 8.03033 6.28033C8.17098 6.13968 8.25 5.94891 8.25 5.75V5H15.75V5.75C15.75 5.94891 15.829 6.13968 15.9697 6.28033C16.1103 6.42098 16.3011 6.5 16.5 6.5C16.6989 6.5 16.8897 6.42098 17.0303 6.28033C17.171 6.13968 17.25 5.94891 17.25 5.75V5H19.5V8Z" fill="#FBA834"/>
</g>
</svg>
