<svg width="24" height="25" viewBox="0 0 24 25" fill="none" xmlns="http://www.w3.org/2000/svg">
<g id="Frame">
<path id="Vector" d="M18.75 21.5H14.1131C14.892 20.8045 15.6266 20.0608 16.3125 19.2734C18.8859 16.3138 20.25 13.1938 20.25 10.25C20.25 8.06196 19.3808 5.96354 17.8336 4.41637C16.2865 2.86919 14.188 2 12 2C9.81196 2 7.71354 2.86919 6.16637 4.41637C4.61919 5.96354 3.75 8.06196 3.75 10.25C3.75 13.1938 5.11031 16.3138 7.6875 19.2734C8.37338 20.0608 9.10795 20.8045 9.88688 21.5H5.25C5.05109 21.5 4.86032 21.579 4.71967 21.7197C4.57902 21.8603 4.5 22.0511 4.5 22.25C4.5 22.4489 4.57902 22.6397 4.71967 22.7803C4.86032 22.921 5.05109 23 5.25 23H18.75C18.9489 23 19.1397 22.921 19.2803 22.7803C19.421 22.6397 19.5 22.4489 19.5 22.25C19.5 22.0511 19.421 21.8603 19.2803 21.7197C19.1397 21.579 18.9489 21.5 18.75 21.5ZM12 7.25C12.5933 7.25 13.1734 7.42595 13.6667 7.75559C14.1601 8.08524 14.5446 8.55377 14.7716 9.10195C14.9987 9.65013 15.0581 10.2533 14.9424 10.8353C14.8266 11.4172 14.5409 11.9518 14.1213 12.3713C13.7018 12.7909 13.1672 13.0766 12.5853 13.1924C12.0033 13.3081 11.4001 13.2487 10.8519 13.0216C10.3038 12.7946 9.83524 12.4101 9.50559 11.9167C9.17595 11.4234 9 10.8433 9 10.25C9 9.45435 9.31607 8.69129 9.87868 8.12868C10.4413 7.56607 11.2044 7.25 12 7.25Z" fill="#FBA834"/>
</g>
</svg>
