<svg width="25" height="25" viewBox="0 0 25 25" fill="none" xmlns="http://www.w3.org/2000/svg">
<g id="Frame">
<path id="Vector" d="M2.75 9.5C3.54565 9.5 4.30871 9.81607 4.87132 10.3787C5.43393 10.9413 5.75 11.7044 5.75 12.5C5.75 13.2956 5.43393 14.0587 4.87132 14.6213C4.30871 15.1839 3.54565 15.5 2.75 15.5V17.5C2.75 18.0304 2.96071 18.5391 3.33579 18.9142C3.71086 19.2893 4.21957 19.5 4.75 19.5H20.75C21.2804 19.5 21.7891 19.2893 22.1642 18.9142C22.5393 18.5391 22.75 18.0304 22.75 17.5V15.5C21.9544 15.5 21.1913 15.1839 20.6287 14.6213C20.0661 14.0587 19.75 13.2956 19.75 12.5C19.75 11.7044 20.0661 10.9413 20.6287 10.3787C21.1913 9.81607 21.9544 9.5 22.75 9.5V7.5C22.75 6.96957 22.5393 6.46086 22.1642 6.08579C21.7891 5.71071 21.2804 5.5 20.75 5.5H4.75C4.21957 5.5 3.71086 5.71071 3.33579 6.08579C2.96071 6.46086 2.75 6.96957 2.75 7.5V9.5Z" stroke="white" stroke-width="2" stroke-linecap="round" stroke-linejoin="round"/>
<path id="Vector_2" d="M13.75 5.5V7.5" stroke="white" stroke-width="2" stroke-linecap="round" stroke-linejoin="round"/>
<path id="Vector_3" d="M13.75 17.5V19.5" stroke="white" stroke-width="2" stroke-linecap="round" stroke-linejoin="round"/>
<path id="Vector_4" d="M13.75 11.5V13.5" stroke="white" stroke-width="2" stroke-linecap="round" stroke-linejoin="round"/>
</g>
</svg>
