
        <svg xmlns="http://www.w3.org/2000/svg" xmlns:xlink="http://www.w3.org/1999/xlink" version="1.1" width="3162.1621621621625" 
        height="1256.210873755887" viewBox="0 0 3162.1621621621625 1256.210873755887">
			
			<g transform="scale(8.108108108108109) translate(10, 10)">
				<defs id="SvgjsDefs10280"><linearGradient id="SvgjsLinearGradient10287"><stop id="SvgjsStop10288" stop-color="#905e26" offset="0"></stop><stop id="SvgjsStop10289" stop-color="#f5ec9b" offset="0.5"></stop><stop id="SvgjsStop10290" stop-color="#905e26" offset="1"></stop></linearGradient><linearGradient id="SvgjsLinearGradient10291"><stop id="SvgjsStop10292" stop-color="#b98947" offset="0"></stop><stop id="SvgjsStop10293" stop-color="#faf0a1" offset="1"></stop></linearGradient><linearGradient id="SvgjsLinearGradient10294"><stop id="SvgjsStop10295" stop-color="#b98947" offset="0"></stop><stop id="SvgjsStop10296" stop-color="#faf0a1" offset="1"></stop></linearGradient></defs><g id="SvgjsG10281" featureKey="CGau9U-0" transform="matrix(1.3493218029349026,0,0,1.3493218029349026,0,0)" fill="url(#SvgjsLinearGradient10287)"><g xmlns="http://www.w3.org/2000/svg"><path d="M18.097,22.218c0.693,2.759-0.427,5.502-2.626,6.156c-2.191,0.652-4.675-1.178-5.417-4.127   c-0.892-2.995,1.478-13.728,1.478-13.728S17.29,19.561,18.097,22.218z"></path><path d="M27.847,32.956c-0.911,2.538-3.361,4.022-5.549,3.134c-2.194-0.88-3.237-3.848-2.239-6.453   c0.935-2.694,8.533-9.238,8.533-9.238S28.637,30.378,27.847,32.956z"></path><path d="M33.248,45.991c-0.641,2.604-2.9,4.348-5.178,3.717c-2.272-0.628-3.631-3.466-2.909-6.156   c0.65-2.776,7.544-10.049,7.544-10.049S33.753,43.37,33.248,45.991z"></path><path d="M40.043,58.155c-0.323,2.635-2.337,4.66-4.672,4.331c-2.329-0.327-4.034-2.971-3.624-5.723   c0.313-2.836,6.376-10.787,6.376-10.787S40.216,55.519,40.043,58.155z"></path><path d="M8.262,39.868c2.434,1.706,5.239,1.179,6.32-0.987c1.073-2.169,0.091-5.155-2.224-6.862C10.035,30.422,0,27.798,0,27.798   S5.732,38.269,8.262,39.868z"></path><path d="M14.532,54.995c2.612,1.45,5.351,0.607,6.175-1.666c0.827-2.279-0.473-5.142-2.956-6.604   c-2.478-1.347-12.733-2.944-12.733-2.944S11.818,53.663,14.532,54.995z"></path><path d="M22.606,69.437c2.794,1.136,5.399-0.057,5.923-2.423c0.525-2.375-1.125-5.052-3.763-6.222   c-2.622-1.038-13.017-1.526-13.017-1.526S19.71,68.447,22.606,69.437z"></path><path d="M48.294,69.096c0.031,2.639-1.629,4.927-3.992,4.97c-2.342,0.03-4.406-2.345-4.378-5.11   c-0.096-2.854,4.933-11.467,4.933-11.467S48.068,66.499,48.294,69.096z"></path><path d="M32.708,82.821c2.942,0.75,5.357-0.846,5.502-3.26c0.16-2.438-1.854-4.852-4.643-5.651   c-2.747-0.65-13.156,0.148-13.156,0.148S29.645,82.279,32.708,82.821z"></path><path d="M72.775,99.921c-14.424-5.55-27.001-15.413-36.452-27.534C26.8,60.266,20.065,46.183,15.472,31.569   c-0.167-0.541,0.092-1.099,0.58-1.247l0,0c0.487-0.148,1.015,0.163,1.18,0.696l0,0c4.536,14.438,11.189,28.328,20.54,40.227   c9.285,11.903,21.573,21.529,35.674,26.958c0.515,0.203,0.789,0.754,0.611,1.231l0,0C73.877,99.912,73.304,100.13,72.775,99.921   L72.775,99.921z"></path></g><g xmlns="http://www.w3.org/2000/svg"><path d="M62.6,9.624c-0.882,1.857-2.75,2.904-4.303,2.284c-1.542-0.613-2.121-2.816-1.156-4.854C58.027,4.886,64.407,0,64.407,0   S63.331,7.775,62.6,9.624z"></path><path d="M63.407,19.978c-1.613,1.032-3.698,0.857-4.591-0.599c-0.922-1.459-0.188-3.644,1.53-4.685   c1.759-1.143,9.006-1.27,9.006-1.27S64.946,18.839,63.407,19.978z"></path><path d="M61.215,29.654c-1.422,1.271-3.508,1.442-4.626,0.153c-1.145-1.286-0.785-3.563,0.759-4.855   c1.529-1.418,8.676-2.614,8.676-2.614S62.539,28.276,61.215,29.654z"></path><path d="M60.661,39.531c-1.203,1.492-3.207,2.006-4.543,0.921c-1.323-1.079-1.373-3.383-0.06-4.914   c1.285-1.656,8.128-3.993,8.128-3.993S61.738,37.941,60.661,39.531z"></path><path d="M48.992,15.466c0.659,2.127,2.528,3.018,4.108,2.198c1.557-0.833,2.332-3.001,1.767-5.053   c-0.613-1.955-5.025-8.168-5.025-8.168S48.176,13.356,48.992,15.466z"></path><path d="M46.259,27.545c0.996,2.001,2.986,2.572,4.411,1.503c1.403-1.079,1.808-3.345,0.938-5.284   c-0.946-1.835-6.234-7.333-6.234-7.333S45.093,25.594,46.259,27.545z"></path><path d="M45.561,39.939c1.304,1.807,3.385,2.038,4.594,0.748c1.224-1.297,1.22-3.598,0.045-5.367   c-1.226-1.648-7.353-6.22-7.353-6.22S44.087,38.219,45.561,39.939z"></path><path d="M61.737,49.402c-0.937,1.675-2.85,2.505-4.33,1.644c-1.486-0.854-1.904-3.12-0.861-4.848   c0.997-1.845,7.358-5.294,7.358-5.294S62.548,47.648,61.737,49.402z"></path><path d="M46.902,52.242c1.583,1.562,3.658,1.462,4.657-0.006c0.993-1.473,0.621-3.744-0.828-5.292   c-1.479-1.424-8.275-4.908-8.275-4.908S45.181,50.792,46.902,52.242z"></path><path d="M64.979,78.329c-6.371-9.34-10.425-20.146-11.957-31.316c-1.539-11.178-0.151-22.721,3.834-33.261   c0.138-0.393,0.55-0.593,0.893-0.46l0,0c0.348,0.135,0.497,0.546,0.362,0.931l0,0c-8.123,20.736-4.498,45.102,7.961,63.33   c0.232,0.328,0.185,0.762-0.106,0.989l0,0C65.672,78.77,65.222,78.672,64.979,78.329L64.979,78.329z"></path></g></g><g id="SvgjsG10282" featureKey="zSuAwM-0" transform="matrix(3.3182905780719807,0,0,3.3182905780719807,116.28351572344972,7.032919917480207)" fill="url(#SvgjsLinearGradient10291)"><path d="M6.38 11.9 c1.52 0.72 3.5 1.86 3.5 3.92 c0 0.6 -0.1 1.76 -0.76 2.74 c-0.74 1.1 -1.9 1.64 -3.5 1.64 c-1.7 0 -3.68 -0.82 -4.3 -2.68 c-0.02 -0.06 0 -0.12 0.06 -0.16 l1.84 -1.58 c0.08 -0.06 0.2 -0.06 0.26 0.04 c0.04 0.1 0.12 0.26 0.22 0.46 c0.3 0.62 1.02 1.24 1.82 1.24 c0.62 0 1.46 -0.34 1.46 -1.3 c0 -0.92 -1.26 -1.44 -2.04 -1.74 c-0.9 -0.36 -1.82 -0.82 -2.6 -1.5 c-0.82 -0.76 -1.22 -1.6 -1.22 -2.6 c0 -2.5 2.3 -3.76 4.48 -3.76 c1.72 0 3 0.9 3.84 2.68 c0.04 0.08 0 0.18 -0.06 0.22 l-1.78 1.24 c-0.08 0.04 -0.12 0.04 -0.2 -0.06 c-0.68 -0.98 -1.28 -1.44 -2.08 -1.44 c-0.42 0 -1.4 0.16 -1.4 0.9 c0 0.9 1.66 1.36 2.46 1.74 z M2.74 17.42 c0.5 1 1.88 1.58 3 1.58 c1.46 0 2.64 -1 2.8 -2.52 c0.2 -1.86 -1.26 -2.66 -2.7 -3.38 l-0.64 -0.28 c-1.48 -0.66 -2.56 -1.16 -2.56 -2.54 c0 -1.52 1.4 -2.22 2.78 -2.22 c1.26 0 1.92 0.74 2.26 1.2 c0.12 0.16 0.32 0.02 0.2 -0.14 c-0.34 -0.42 -1.06 -1.3 -2.46 -1.3 c-1.58 0 -3.02 0.78 -3.02 2.46 c0 1.5 1.2 2.08 2.72 2.78 l0.62 0.3 c1.98 0.94 2.7 1.82 2.54 3.1 c-0.3 2.04 -1.86 2.3 -2.54 2.3 c-1.5 0 -2.5 -0.9 -2.8 -1.46 c-0.1 -0.1 -0.24 0 -0.2 0.12 z M13.04 20 c-0.1 0 -0.16 -0.08 -0.16 -0.18 l0 -12.84 c0 -0.1 0.06 -0.18 0.16 -0.18 l6.8 0 c0.1 0 0.18 0.08 0.18 0.18 l0 2.14 c0 0.1 -0.08 0.18 -0.18 0.18 l-4.32 0 l0 2.72 l3.36 0 c0.1 0 0.16 0.08 0.16 0.18 l0 2.18 c0 0.1 -0.06 0.18 -0.16 0.18 l-3.36 0 l0 2.94 l4.32 0 c0.1 0 0.18 0.08 0.18 0.18 l0 2.14 c0 0.1 -0.08 0.18 -0.18 0.18 l-6.8 0 z M14.04 8.06 l0 10.64 c0 0.12 0.08 0.16 0.16 0.16 l4.6 0 c0.18 0 0.14 -0.24 0 -0.24 l-4.5 0 l0 -5.22 l3.68 0 c0.12 0 0.12 -0.28 0 -0.28 l-3.68 0 l0 -4.96 l4.5 0 c0.14 0 0.18 -0.26 0 -0.26 l-4.6 0 c-0.08 0 -0.16 0.06 -0.16 0.16 z M23.56 20 c-0.1 0 -0.16 -0.08 -0.16 -0.18 l0 -12.84 c0 -0.1 0.06 -0.18 0.16 -0.18 l6.8 0 c0.1 0 0.18 0.08 0.18 0.18 l0 2.14 c0 0.1 -0.08 0.18 -0.18 0.18 l-4.32 0 l0 2.72 l3.36 0 c0.1 0 0.16 0.08 0.16 0.18 l0 2.18 c0 0.1 -0.06 0.18 -0.16 0.18 l-3.36 0 l0 2.94 l4.32 0 c0.1 0 0.18 0.08 0.18 0.18 l0 2.14 c0 0.1 -0.08 0.18 -0.18 0.18 l-6.8 0 z M24.56 8.06 l0 10.64 c0 0.12 0.08 0.16 0.16 0.16 l4.6 0 c0.18 0 0.14 -0.24 0 -0.24 l-4.5 0 l0 -5.22 l3.68 0 c0.12 0 0.12 -0.28 0 -0.28 l-3.68 0 l0 -4.96 l4.5 0 c0.14 0 0.18 -0.26 0 -0.26 l-4.6 0 c-0.08 0 -0.16 0.06 -0.16 0.16 z M39.08 6.800000000000001 c1.36 0 2.38 0.38 3.06 1.12 c0.6 0.66 0.9 1.64 0.9 2.84 l0 5.3 c0 2.42 -1.4 3.94 -3.96 3.94 l-5 0 c-0.1 0 -0.16 -0.08 -0.16 -0.18 l0 -12.84 c0 -0.1 0.06 -0.18 0.16 -0.18 l5 0 z M40.42 15.46 l0 -4.1 c0 -1.26 -0.66 -2.06 -2.06 -2.06 l-1.8 0 l0 8.2 l1.8 0 c1.2 0 2.06 -0.78 2.06 -2.04 z M35.14 8.02 l0 10.76 c0 0.08 0.08 0.1 0.12 0.1 l3.26 0 c2.3 0 3.34 -1.38 3.34 -2.66 l0 -5.12 c0 -2.12 -1.12 -3.2 -3.4 -3.2 l-3.2 0 c-0.04 0 -0.12 0.02 -0.12 0.12 z M41.62 11.1 l0 5.12 c0 1.6 -1.6 2.44 -3.1 2.44 l-3.14 0 l0 -10.5 l3.08 0 c2.1 0 3.16 0.94 3.16 2.94 z M46.699999999999996 20 c-0.1 0 -0.16 -0.08 -0.16 -0.18 l0 -12.84 c0 -0.1 0.06 -0.18 0.16 -0.18 l6.8 0 c0.1 0 0.18 0.08 0.18 0.18 l0 2.14 c0 0.1 -0.08 0.18 -0.18 0.18 l-4.32 0 l0 2.72 l3.36 0 c0.1 0 0.16 0.08 0.16 0.18 l0 2.18 c0 0.1 -0.06 0.18 -0.16 0.18 l-3.36 0 l0 2.94 l4.32 0 c0.1 0 0.18 0.08 0.18 0.18 l0 2.14 c0 0.1 -0.08 0.18 -0.18 0.18 l-6.8 0 z M47.699999999999996 8.06 l0 10.64 c0 0.12 0.08 0.16 0.16 0.16 l4.6 0 c0.18 0 0.14 -0.24 0 -0.24 l-4.5 0 l0 -5.22 l3.68 0 c0.12 0 0.12 -0.28 0 -0.28 l-3.68 0 l0 -4.96 l4.5 0 c0.14 0 0.18 -0.26 0 -0.26 l-4.6 0 c-0.08 0 -0.16 0.06 -0.16 0.16 z M64.55999999999999 14.780000000000001 c-0.28 0.58 -0.68 1.02 -1.24 1.28 l1.68 3.7 c0.06 0.12 -0.02 0.24 -0.14 0.24 l-2.46 0 c-0.08 0 -0.12 -0.04 -0.14 -0.1 l-1.56 -3.4 l-1.02 0 l0 3.32 c0 0.1 -0.08 0.18 -0.18 0.18 l-2.3 0 c-0.08 0 -0.14 -0.08 -0.14 -0.18 l0 -12.84 c0 -0.1 0.06 -0.18 0.14 -0.18 l4.16 0 c2.22 0 3.56 1.26 3.56 3.6 l0 2.52 c0 0.7 -0.12 1.36 -0.36 1.86 z M62.29999999999999 12.3 l0 -1.3 c0 -1.4 -0.52 -1.54 -2.04 -1.54 l-0.58 0 l0 4.42 l0.58 0 c1.26 0 2 -0.02 2.04 -1.58 z M58.519999999999996 18.78 l0 -3.42 l2.88 0 l1.68 3.46 c0.04 0.1 0.28 0.06 0.22 -0.12 l-1.68 -3.4 c1.56 -0.22 2.1 -1.04 2.1 -2.52 l0 -2.5 c0 -2.2 -2 -2.38 -2.62 -2.38 l-2.7 0 c-0.04 0 -0.12 0.06 -0.12 0.12 l0 10.76 c0 0.14 0.24 0.14 0.24 0 z M63.47999999999999 10.28 l0 2.5 c0 2.04 -1.3 2.32 -2.56 2.32 l-2.4 0 l0 -6.94 l2.58 0 c2.16 0 2.38 1.46 2.38 2.12 z M72.96 11.9 c1.52 0.72 3.5 1.86 3.5 3.92 c0 0.6 -0.1 1.76 -0.76 2.74 c-0.74 1.1 -1.9 1.64 -3.5 1.64 c-1.7 0 -3.68 -0.82 -4.3 -2.68 c-0.02 -0.06 0 -0.12 0.06 -0.16 l1.84 -1.58 c0.08 -0.06 0.2 -0.06 0.26 0.04 c0.04 0.1 0.12 0.26 0.22 0.46 c0.3 0.62 1.02 1.24 1.82 1.24 c0.62 0 1.46 -0.34 1.46 -1.3 c0 -0.92 -1.26 -1.44 -2.04 -1.74 c-0.9 -0.36 -1.82 -0.82 -2.6 -1.5 c-0.82 -0.76 -1.22 -1.6 -1.22 -2.6 c0 -2.5 2.3 -3.76 4.48 -3.76 c1.72 0 3 0.9 3.84 2.68 c0.04 0.08 0 0.18 -0.06 0.22 l-1.78 1.24 c-0.08 0.04 -0.12 0.04 -0.2 -0.06 c-0.68 -0.98 -1.28 -1.44 -2.08 -1.44 c-0.42 0 -1.4 0.16 -1.4 0.9 c0 0.9 1.66 1.36 2.46 1.74 z M69.32 17.42 c0.5 1 1.88 1.58 3 1.58 c1.46 0 2.64 -1 2.8 -2.52 c0.2 -1.86 -1.26 -2.66 -2.7 -3.38 l-0.64 -0.28 c-1.48 -0.66 -2.56 -1.16 -2.56 -2.54 c0 -1.52 1.4 -2.22 2.78 -2.22 c1.26 0 1.92 0.74 2.26 1.2 c0.12 0.16 0.32 0.02 0.2 -0.14 c-0.34 -0.42 -1.06 -1.3 -2.46 -1.3 c-1.58 0 -3.02 0.78 -3.02 2.46 c0 1.5 1.2 2.08 2.72 2.78 l0.62 0.3 c1.98 0.94 2.7 1.82 2.54 3.1 c-0.3 2.04 -1.86 2.3 -2.54 2.3 c-1.5 0 -2.5 -0.9 -2.8 -1.46 c-0.1 -0.1 -0.24 0 -0.2 0.12 z"></path></g><g id="SvgjsG10283" featureKey="fF8Cqn-0" transform="matrix(0.8509672270839814,0,0,0.8509672270839814,123.62143237796383,88.3665982714079)" fill="url(#SvgjsLinearGradient10294)"><path d="M8.14 15.379999999999999 l0 -0.62 c0 -0.1 0.08 -0.18 0.18 -0.18 l2.28 0 c0.1 0 0.18 0.08 0.18 0.18 l0 1.26 c0 2.94 -1.58 4.18 -4.56 4.18 c-2.78 0 -4.6 -1.1 -4.6 -4.18 l0 -5.26 c0 -2.96 1.62 -4.14 4.6 -4.14 c2.82 0 4.56 1.08 4.56 4.14 l0 0.42 c0 0.1 -0.08 0.18 -0.18 0.18 l-2.3 0 c-0.1 0 -0.18 -0.08 -0.18 -0.18 l0 -0.32 c0 -1.1 -0.82 -1.56 -1.8 -1.56 l-0.24 0 c-0.66 0 -1.1 0.18 -1.4 0.58 c-0.28 0.38 -0.38 0.88 -0.38 1.54 l0 3.96 c0 1.74 0.98 2.12 1.78 2.12 l0.24 0 c1.26 0 1.78 -0.84 1.82 -2.12 z M6.18 7.859999999999999 c-2.14 0 -3.38 0.76 -3.38 3.2 l0 4.82 c0 2.22 1.14 3.04 3.38 3.04 c2.1 0 3.36 -0.76 3.36 -3.06 c0 -0.16 -0.24 -0.16 -0.24 0 c0 2.02 -1.1 2.84 -3.12 2.84 c-1.96 0 -3.16 -0.68 -3.16 -2.82 l0 -4.82 c0 -2.08 0.98 -2.98 3.16 -2.98 c2.84 0 2.94 1.8 2.94 2 c0 0.18 0.28 0.2 0.28 0 c0 -1.66 -1.68 -2.22 -3.22 -2.22 z M25.014000000000003 15.379999999999999 l0 -8.4 c0 -0.1 0.08 -0.18 0.18 -0.18 l2.28 0 c0.1 0 0.18 0.08 0.18 0.18 l0 9.04 c0 2.88 -1.58 4.18 -4.56 4.18 c-2.82 0 -4.58 -1.12 -4.58 -4.18 l0 -9.04 c0 -0.1 0.08 -0.18 0.18 -0.18 l2.3 0 c0.1 0 0.18 0.08 0.18 0.18 l0 8.4 c0 1.74 0.98 2.12 1.8 2.12 l0.24 0 c1.24 0 1.8 -0.84 1.8 -2.12 z M19.754 8.08 l0 7.78 c0 1.8 1.22 3.1 3.12 3.1 l0.5 0 c1.9 0 3.14 -1.36 3.14 -3.1 l0 -7.78 c0 -0.18 -0.24 -0.2 -0.24 0 l0 7.78 c0 1.64 -1.18 2.84 -2.9 2.84 l-0.5 0 c-1.68 0 -2.88 -1.08 -2.88 -2.84 l0 -7.78 c0 -0.18 -0.24 -0.18 -0.24 0 z M38.188 6.800000000000001 c0.1 0 0.18 0.08 0.18 0.18 l0 10.5 l4.32 0 c0.1 0 0.18 0.08 0.18 0.18 l0 2.16 c0 0.1 -0.08 0.18 -0.18 0.18 l-6.78 0 c-0.1 0 -0.16 -0.08 -0.16 -0.18 l0 -12.84 c0 -0.1 0.06 -0.18 0.16 -0.18 l2.28 0 z M36.948 8.02 l0 10.76 c0 0.04 0.04 0.1 0.12 0.1 l4.62 0 c0.16 0 0.16 -0.26 0 -0.26 l-4.52 0 l0 -10.6 c0 -0.14 -0.22 -0.16 -0.22 0 z M52.222 9.3 l-2.84 0 c-0.1 0 -0.18 -0.08 -0.18 -0.18 l0 -2.14 c0 -0.1 0.08 -0.18 0.18 -0.18 l8.34 0 c0.1 0 0.18 0.08 0.18 0.18 l0 2.14 c0 0.1 -0.08 0.18 -0.18 0.18 l-2.84 0 l0 10.52 c0 0.1 -0.08 0.18 -0.18 0.18 l-2.3 0 c-0.1 0 -0.18 -0.08 -0.18 -0.18 l0 -10.52 z M56.502 7.9 l-6.04 0 c-0.14 0 -0.14 0.26 0 0.26 l2.96 0 l0 10.6 c0 0.14 0.26 0.14 0.26 0 l0 -10.6 l2.82 0 c0.2 0 0.18 -0.26 0 -0.26 z M65.35600000000001 20 c-0.1 0 -0.16 -0.08 -0.16 -0.18 l0 -12.84 c0 -0.1 0.06 -0.18 0.16 -0.18 l2.28 0 c0.1 0 0.18 0.08 0.18 0.18 l0 12.84 c0 0.1 -0.08 0.18 -0.18 0.18 l-2.28 0 z M66.396 8 l0 10.78 c0 0.18 0.22 0.18 0.22 0 l0 -10.78 c0 -0.14 -0.22 -0.14 -0.22 0 z M77.69 6.92 l2.2 8.28 l2.26 -8.28 c0.04 -0.06 0.08 -0.12 0.16 -0.12 l2.28 0 c0.12 0 0.2 0.1 0.16 0.22 l-3.46 12.86 c-0.04 0.08 -0.08 0.12 -0.16 0.12 l-2.48 0 c-0.06 0 -0.12 -0.04 -0.14 -0.12 l-3.46 -12.86 c-0.02 -0.12 0.06 -0.22 0.18 -0.22 l2.3 0 c0.08 0 0.12 0.06 0.16 0.12 z M79.85 18.62 l-3.34 -10.66 c-0.06 -0.16 -0.28 -0.06 -0.22 0.06 l3.32 10.68 c0.08 0.3 0.4 0.32 0.5 0 l3.2 -10.68 c0.04 -0.12 -0.18 -0.2 -0.22 -0.06 z M94.524 6.92 c0.02 -0.06 0.06 -0.12 0.14 -0.12 l2.48 0 c0.08 0 0.12 0.06 0.14 0.12 l3.46 12.86 c0.02 0.12 -0.06 0.22 -0.18 0.22 l-2.28 0 c-0.06 0 -0.12 -0.04 -0.14 -0.12 l-0.78 -2.8 l-2.92 0 l-0.76 2.8 c-0.02 0.08 -0.06 0.12 -0.14 0.12 l-2.3 0 c-0.12 0 -0.2 -0.1 -0.18 -0.22 z M95.084 14.6 l1.66 0 l-0.86 -3.02 z M98.164 15.780000000000001 l0.92 3 c0.04 0.12 0.26 0.1 0.2 -0.06 l-3.2 -10.64 c-0.06 -0.26 -0.4 -0.28 -0.46 0 l-3.1 10.64 c-0.06 0.14 0.16 0.2 0.22 0.08 l0.88 -3.02 l4.54 0 z M93.68400000000001 15.52 l2.18 -7.36 l2.22 7.36 l-4.4 0 z M110.098 9.3 l-2.84 0 c-0.1 0 -0.18 -0.08 -0.18 -0.18 l0 -2.14 c0 -0.1 0.08 -0.18 0.18 -0.18 l8.34 0 c0.1 0 0.18 0.08 0.18 0.18 l0 2.14 c0 0.1 -0.08 0.18 -0.18 0.18 l-2.84 0 l0 10.52 c0 0.1 -0.08 0.18 -0.18 0.18 l-2.3 0 c-0.1 0 -0.18 -0.08 -0.18 -0.18 l0 -10.52 z M114.378 7.9 l-6.04 0 c-0.14 0 -0.14 0.26 0 0.26 l2.96 0 l0 10.6 c0 0.14 0.26 0.14 0.26 0 l0 -10.6 l2.82 0 c0.2 0 0.18 -0.26 0 -0.26 z M123.23200000000001 20 c-0.1 0 -0.16 -0.08 -0.16 -0.18 l0 -12.84 c0 -0.1 0.06 -0.18 0.16 -0.18 l2.28 0 c0.1 0 0.18 0.08 0.18 0.18 l0 12.84 c0 0.1 -0.08 0.18 -0.18 0.18 l-2.28 0 z M124.272 8 l0 10.78 c0 0.18 0.22 0.18 0.22 0 l0 -10.78 c0 -0.14 -0.22 -0.14 -0.22 0 z M139.32600000000002 6.98 c0 -0.1 0.08 -0.18 0.18 -0.18 l2.3 0 c0.1 0 0.18 0.08 0.18 0.18 l0 12.84 c0 0.1 -0.08 0.18 -0.18 0.18 l-2.22 0 c-0.08 0 -0.16 -0.04 -0.18 -0.1 l-2.92 -6.58 l0 6.5 c0 0.1 -0.08 0.18 -0.18 0.18 l-2.28 0 c-0.1 0 -0.16 -0.08 -0.16 -0.18 l0 -12.84 c0 -0.1 0.06 -0.18 0.16 -0.18 l2.36 0 c0.08 0 0.12 0.06 0.14 0.1 l2.8 6.46 l0 -6.38 z M140.76600000000002 18.8 l0 -10.8 c0 -0.14 -0.26 -0.18 -0.26 0 l0 10.28 l-5.22 -10.32 c-0.06 -0.08 -0.22 -0.08 -0.22 0.04 l0 10.78 c0 0.18 0.24 0.18 0.24 0 l0 -10.26 l5.2 10.3 c0.08 0.14 0.26 0.1 0.26 -0.02 z M154.38000000000002 15.2 c-0.1 0 -0.18 -0.08 -0.18 -0.18 l0 -2.14 c0 -0.1 0.08 -0.18 0.18 -0.18 l4.58 0 c0.1 0 0.18 0.08 0.18 0.18 l0 3.14 c0 2.94 -1.58 4.18 -4.56 4.18 c-2.78 0 -4.6 -1.1 -4.6 -4.18 l0 -5.26 c0 -2.9 1.62 -4.14 4.6 -4.14 c2.8 0 4.56 1.08 4.56 4.14 l0 0.42 c0 0.1 -0.08 0.18 -0.18 0.18 l-2.3 0 c-0.1 0 -0.18 -0.08 -0.18 -0.18 l0 -0.26 c0 -1.22 -0.78 -1.62 -1.8 -1.62 l-0.24 0 c-0.66 0 -1.1 0.18 -1.4 0.58 c-0.28 0.38 -0.38 0.88 -0.38 1.54 l0 3.96 c0 1.74 0.94 2.12 1.78 2.12 l0.24 0 c1.22 0 1.8 -0.84 1.8 -2.12 l0 -0.18 l-2.1 0 z M151.20000000000002 15.879999999999999 c0 2.22 1.08 3.04 3.36 3.04 c2.4 0 3.38 -1 3.38 -3.46 l0 -1.5 c0 -0.06 -0.04 -0.14 -0.08 -0.14 l-2.78 0 c-0.18 0 -0.14 0.26 0 0.26 l2.62 0 l0 1.38 c0 2.14 -0.82 3.24 -3.14 3.24 c-1.92 0 -3.12 -0.68 -3.12 -2.82 l0 -4.82 c0 -2.06 0.94 -2.98 3.12 -2.98 c1.62 0 3.1 0.9 2.98 2.28 c0 0.16 0.22 0.2 0.26 0.02 c0 -1.76 -1.6 -2.52 -3.24 -2.52 c-2 0 -3.36 0.72 -3.36 3.2 l0 4.82 z M183.508 11.9 c1.52 0.72 3.5 1.86 3.5 3.92 c0 0.6 -0.1 1.76 -0.76 2.74 c-0.74 1.1 -1.9 1.64 -3.5 1.64 c-1.7 0 -3.68 -0.82 -4.3 -2.68 c-0.02 -0.06 0 -0.12 0.06 -0.16 l1.84 -1.58 c0.08 -0.06 0.2 -0.06 0.26 0.04 c0.04 0.1 0.12 0.26 0.22 0.46 c0.3 0.62 1.02 1.24 1.82 1.24 c0.62 0 1.46 -0.34 1.46 -1.3 c0 -0.92 -1.26 -1.44 -2.04 -1.74 c-0.9 -0.36 -1.82 -0.82 -2.6 -1.5 c-0.82 -0.76 -1.22 -1.6 -1.22 -2.6 c0 -2.5 2.3 -3.76 4.48 -3.76 c1.72 0 3 0.9 3.84 2.68 c0.04 0.08 0 0.18 -0.06 0.22 l-1.78 1.24 c-0.08 0.04 -0.12 0.04 -0.2 -0.06 c-0.68 -0.98 -1.28 -1.44 -2.08 -1.44 c-0.42 0 -1.4 0.16 -1.4 0.9 c0 0.9 1.66 1.36 2.46 1.74 z M179.86800000000002 17.42 c0.5 1 1.88 1.58 3 1.58 c1.46 0 2.64 -1 2.8 -2.52 c0.2 -1.86 -1.26 -2.66 -2.7 -3.38 l-0.64 -0.28 c-1.48 -0.66 -2.56 -1.16 -2.56 -2.54 c0 -1.52 1.4 -2.22 2.78 -2.22 c1.26 0 1.92 0.74 2.26 1.2 c0.12 0.16 0.32 0.02 0.2 -0.14 c-0.34 -0.42 -1.06 -1.3 -2.46 -1.3 c-1.58 0 -3.02 0.78 -3.02 2.46 c0 1.5 1.2 2.08 2.72 2.78 l0.62 0.3 c1.98 0.94 2.7 1.82 2.54 3.1 c-0.3 2.04 -1.86 2.3 -2.54 2.3 c-1.5 0 -2.5 -0.9 -2.8 -1.46 c-0.1 -0.1 -0.24 0 -0.2 0.12 z M200.86200000000002 15.379999999999999 l0 -8.4 c0 -0.1 0.08 -0.18 0.18 -0.18 l2.28 0 c0.1 0 0.18 0.08 0.18 0.18 l0 9.04 c0 2.88 -1.58 4.18 -4.56 4.18 c-2.82 0 -4.58 -1.12 -4.58 -4.18 l0 -9.04 c0 -0.1 0.08 -0.18 0.18 -0.18 l2.3 0 c0.1 0 0.18 0.08 0.18 0.18 l0 8.4 c0 1.74 0.98 2.12 1.8 2.12 l0.24 0 c1.24 0 1.8 -0.84 1.8 -2.12 z M195.602 8.08 l0 7.78 c0 1.8 1.22 3.1 3.12 3.1 l0.5 0 c1.9 0 3.14 -1.36 3.14 -3.1 l0 -7.78 c0 -0.18 -0.24 -0.2 -0.24 0 l0 7.78 c0 1.64 -1.18 2.84 -2.9 2.84 l-0.5 0 c-1.68 0 -2.88 -1.08 -2.88 -2.84 l0 -7.78 c0 -0.18 -0.24 -0.18 -0.24 0 z M217.856 15.379999999999999 l0 -0.62 c0 -0.1 0.08 -0.18 0.18 -0.18 l2.28 0 c0.1 0 0.18 0.08 0.18 0.18 l0 1.26 c0 2.94 -1.58 4.18 -4.56 4.18 c-2.78 0 -4.6 -1.1 -4.6 -4.18 l0 -5.26 c0 -2.96 1.62 -4.14 4.6 -4.14 c2.82 0 4.56 1.08 4.56 4.14 l0 0.42 c0 0.1 -0.08 0.18 -0.18 0.18 l-2.3 0 c-0.1 0 -0.18 -0.08 -0.18 -0.18 l0 -0.32 c0 -1.1 -0.82 -1.56 -1.8 -1.56 l-0.24 0 c-0.66 0 -1.1 0.18 -1.4 0.58 c-0.28 0.38 -0.38 0.88 -0.38 1.54 l0 3.96 c0 1.74 0.98 2.12 1.78 2.12 l0.24 0 c1.26 0 1.78 -0.84 1.82 -2.12 z M215.89600000000002 7.859999999999999 c-2.14 0 -3.38 0.76 -3.38 3.2 l0 4.82 c0 2.22 1.14 3.04 3.38 3.04 c2.1 0 3.36 -0.76 3.36 -3.06 c0 -0.16 -0.24 -0.16 -0.24 0 c0 2.02 -1.1 2.84 -3.12 2.84 c-1.96 0 -3.16 -0.68 -3.16 -2.82 l0 -4.82 c0 -2.08 0.98 -2.98 3.16 -2.98 c2.84 0 2.94 1.8 2.94 2 c0 0.18 0.28 0.2 0.28 0 c0 -1.66 -1.68 -2.22 -3.22 -2.22 z M234.63 15.379999999999999 l0 -0.62 c0 -0.1 0.08 -0.18 0.18 -0.18 l2.28 0 c0.1 0 0.18 0.08 0.18 0.18 l0 1.26 c0 2.94 -1.58 4.18 -4.56 4.18 c-2.78 0 -4.6 -1.1 -4.6 -4.18 l0 -5.26 c0 -2.96 1.62 -4.14 4.6 -4.14 c2.82 0 4.56 1.08 4.56 4.14 l0 0.42 c0 0.1 -0.08 0.18 -0.18 0.18 l-2.3 0 c-0.1 0 -0.18 -0.08 -0.18 -0.18 l0 -0.32 c0 -1.1 -0.82 -1.56 -1.8 -1.56 l-0.24 0 c-0.66 0 -1.1 0.18 -1.4 0.58 c-0.28 0.38 -0.38 0.88 -0.38 1.54 l0 3.96 c0 1.74 0.98 2.12 1.78 2.12 l0.24 0 c1.26 0 1.78 -0.84 1.82 -2.12 z M232.67000000000002 7.859999999999999 c-2.14 0 -3.38 0.76 -3.38 3.2 l0 4.82 c0 2.22 1.14 3.04 3.38 3.04 c2.1 0 3.36 -0.76 3.36 -3.06 c0 -0.16 -0.24 -0.16 -0.24 0 c0 2.02 -1.1 2.84 -3.12 2.84 c-1.96 0 -3.16 -0.68 -3.16 -2.82 l0 -4.82 c0 -2.08 0.98 -2.98 3.16 -2.98 c2.84 0 2.94 1.8 2.94 2 c0 0.18 0.28 0.2 0.28 0 c0 -1.66 -1.68 -2.22 -3.22 -2.22 z M245.304 20 c-0.1 0 -0.16 -0.08 -0.16 -0.18 l0 -12.84 c0 -0.1 0.06 -0.18 0.16 -0.18 l6.8 0 c0.1 0 0.18 0.08 0.18 0.18 l0 2.14 c0 0.1 -0.08 0.18 -0.18 0.18 l-4.32 0 l0 2.72 l3.36 0 c0.1 0 0.16 0.08 0.16 0.18 l0 2.18 c0 0.1 -0.06 0.18 -0.16 0.18 l-3.36 0 l0 2.94 l4.32 0 c0.1 0 0.18 0.08 0.18 0.18 l0 2.14 c0 0.1 -0.08 0.18 -0.18 0.18 l-6.8 0 z M246.304 8.06 l0 10.64 c0 0.12 0.08 0.16 0.16 0.16 l4.6 0 c0.18 0 0.14 -0.24 0 -0.24 l-4.5 0 l0 -5.22 l3.68 0 c0.12 0 0.12 -0.28 0 -0.28 l-3.68 0 l0 -4.96 l4.5 0 c0.14 0 0.18 -0.26 0 -0.26 l-4.6 0 c-0.08 0 -0.16 0.06 -0.16 0.16 z M264.658 11.9 c1.52 0.72 3.5 1.86 3.5 3.92 c0 0.6 -0.1 1.76 -0.76 2.74 c-0.74 1.1 -1.9 1.64 -3.5 1.64 c-1.7 0 -3.68 -0.82 -4.3 -2.68 c-0.02 -0.06 0 -0.12 0.06 -0.16 l1.84 -1.58 c0.08 -0.06 0.2 -0.06 0.26 0.04 c0.04 0.1 0.12 0.26 0.22 0.46 c0.3 0.62 1.02 1.24 1.82 1.24 c0.62 0 1.46 -0.34 1.46 -1.3 c0 -0.92 -1.26 -1.44 -2.04 -1.74 c-0.9 -0.36 -1.82 -0.82 -2.6 -1.5 c-0.82 -0.76 -1.22 -1.6 -1.22 -2.6 c0 -2.5 2.3 -3.76 4.48 -3.76 c1.72 0 3 0.9 3.84 2.68 c0.04 0.08 0 0.18 -0.06 0.22 l-1.78 1.24 c-0.08 0.04 -0.12 0.04 -0.2 -0.06 c-0.68 -0.98 -1.28 -1.44 -2.08 -1.44 c-0.42 0 -1.4 0.16 -1.4 0.9 c0 0.9 1.66 1.36 2.46 1.74 z M261.01800000000003 17.42 c0.5 1 1.88 1.58 3 1.58 c1.46 0 2.64 -1 2.8 -2.52 c0.2 -1.86 -1.26 -2.66 -2.7 -3.38 l-0.64 -0.28 c-1.48 -0.66 -2.56 -1.16 -2.56 -2.54 c0 -1.52 1.4 -2.22 2.78 -2.22 c1.26 0 1.92 0.74 2.26 1.2 c0.12 0.16 0.32 0.02 0.2 -0.14 c-0.34 -0.42 -1.06 -1.3 -2.46 -1.3 c-1.58 0 -3.02 0.78 -3.02 2.46 c0 1.5 1.2 2.08 2.72 2.78 l0.62 0.3 c1.98 0.94 2.7 1.82 2.54 3.1 c-0.3 2.04 -1.86 2.3 -2.54 2.3 c-1.5 0 -2.5 -0.9 -2.8 -1.46 c-0.1 -0.1 -0.24 0 -0.2 0.12 z M280.15200000000004 11.9 c1.52 0.72 3.5 1.86 3.5 3.92 c0 0.6 -0.1 1.76 -0.76 2.74 c-0.74 1.1 -1.9 1.64 -3.5 1.64 c-1.7 0 -3.68 -0.82 -4.3 -2.68 c-0.02 -0.06 0 -0.12 0.06 -0.16 l1.84 -1.58 c0.08 -0.06 0.2 -0.06 0.26 0.04 c0.04 0.1 0.12 0.26 0.22 0.46 c0.3 0.62 1.02 1.24 1.82 1.24 c0.62 0 1.46 -0.34 1.46 -1.3 c0 -0.92 -1.26 -1.44 -2.04 -1.74 c-0.9 -0.36 -1.82 -0.82 -2.6 -1.5 c-0.82 -0.76 -1.22 -1.6 -1.22 -2.6 c0 -2.5 2.3 -3.76 4.48 -3.76 c1.72 0 3 0.9 3.84 2.68 c0.04 0.08 0 0.18 -0.06 0.22 l-1.78 1.24 c-0.08 0.04 -0.12 0.04 -0.2 -0.06 c-0.68 -0.98 -1.28 -1.44 -2.08 -1.44 c-0.42 0 -1.4 0.16 -1.4 0.9 c0 0.9 1.66 1.36 2.46 1.74 z M276.51200000000006 17.42 c0.5 1 1.88 1.58 3 1.58 c1.46 0 2.64 -1 2.8 -2.52 c0.2 -1.86 -1.26 -2.66 -2.7 -3.38 l-0.64 -0.28 c-1.48 -0.66 -2.56 -1.16 -2.56 -2.54 c0 -1.52 1.4 -2.22 2.78 -2.22 c1.26 0 1.92 0.74 2.26 1.2 c0.12 0.16 0.32 0.02 0.2 -0.14 c-0.34 -0.42 -1.06 -1.3 -2.46 -1.3 c-1.58 0 -3.02 0.78 -3.02 2.46 c0 1.5 1.2 2.08 2.72 2.78 l0.62 0.3 c1.98 0.94 2.7 1.82 2.54 3.1 c-0.3 2.04 -1.86 2.3 -2.54 2.3 c-1.5 0 -2.5 -0.9 -2.8 -1.46 c-0.1 -0.1 -0.24 0 -0.2 0.12 z"></path></g>
			</g>
		</svg>
	